<svg width="512" height="512" viewBox="0 0 512 512" fill="none" xmlns="http://www.w3.org/2000/svg">
<path d="M504 0H8C3.58172 0 0 3.58172 0 8V504C0 508.418 3.58172 512 8 512H504C508.418 512 512 508.418 512 504V8C512 3.58172 508.418 0 504 0Z" fill="#161616"/>
<path d="M213.303 368.43C217.214 348.084 220.545 326.668 225.253 305.252C227.57 294.044 224.746 289.261 212.216 290.118C199.687 290.974 185.709 290.546 172.383 290.118C159.057 289.689 156.667 282.979 164.344 273.413C202.149 226.725 240.39 180.609 278.485 134.636C282.758 129.424 287.683 125.712 294.708 129.638C301.733 133.565 300.285 138.419 299.126 144.273C294.925 165.689 291.449 187.105 286.814 208.093C284.424 218.944 287.538 222.799 298.836 222.371C310.175 221.8 321.537 221.8 332.876 222.371C339.322 222.371 347.795 219.016 351.127 227.796C354.458 236.577 347.433 240.289 343.884 245.5C329.399 263.347 314.721 281.17 299.85 298.97C278.074 324.955 256.468 350.845 235.03 376.639C230.83 381.708 226.122 385.777 218.952 383.207C211.782 380.637 213.303 374.569 213.303 368.43Z" fill="white"/>
</svg>
